<svg xmlns="http://www.w3.org/2000/svg" version="1.1" xmlns:xlink="http://www.w3.org/1999/xlink" xmlns:svgjs="http://svgjs.dev/svgjs" width="2000" height="439" viewBox="0 0 2000 439"><g transform="matrix(1,0,0,1,-1.2106200271854277,-0.5613429188762495)"><svg viewBox="0 0 396 87" data-background-color="#000000" preserveAspectRatio="xMidYMid meet" height="439" width="2000" xmlns="http://www.w3.org/2000/svg" xmlns:xlink="http://www.w3.org/1999/xlink"><g id="tight-bounds" transform="matrix(1,0,0,1,0.2399599999999964,0.11124563540371923)"><svg viewBox="0 0 395.52 86.77734293776467" height="86.77734293776467" width="395.52"><rect width="395.52033723461733" height="86.77750872919259" fill="url(#12202f66-39a8-47b0-bd40-2b2e46c5b3da)" mask="url(#bb242e68-d78c-4180-90fc-7b6f94e2e2b3)" data-fill-palette-color="tertiary"></rect><g><svg viewBox="0 0 395.52 86.77734293776467" height="86.77734293776467" width="395.52"><g><svg viewBox="0 0 395.52 86.77734293776467" height="86.77734293776467" width="395.52"><g id="textblocktransform"><svg viewBox="0 0 395.52 86.77734293776467" height="86.77734293776467" width="395.52" id="textblock"><g><svg viewBox="0 0 395.52 86.77734293776467" height="86.77734293776467" width="395.52"><path d="M394.594 18.612C392.735 9.605 387.435 7.101 387.435 7.101 371.165-2.177 350.86-0.177 332.619 1.156 300.414 1.21 268.339 3.191 236.208 4.254 168.767 4.416 100.749 1.75 33.643 8.326 27.339 10.343-6.54 8.722 1.121 19.765 3.129 24.359 10.456 29.457 10.232 33.673 11.236 34.411 12.631 32.718 13.226 33.781 15.309 36.645 18.711 35.294 21.501 36.987 17.614 41.509 20.403 45.274 23.062 49.219 18.377 50.246 12.371 49.76 9.675 53.165 9.396 55.633 7.89 55.164 6.235 55.056 5.026 54.984 2.59 55.254 2.999 56.029 4.394 58.677-1.594 60.209 2.162 62.803-0.422 65.613 3.948 68.045 3.353 71.09 3.278 71.702 3.687 72.224 4.338 72.369 7.22 73.143 3.018 74.656 3.464 76.296 33.029 87.501 65.104 79.755 95.394 84.907 103.259 81.304 97.346 86.186 100.489 85.429 102.943 84.547 104.728 88.204 107.499 86.132 107.927 85.537 107.276 84.132 108.8 84.403 109.6 84.547 110.307 84.511 110.418 83.682 110.586 82.439 109.117 83.214 108.726 82.565 112.947 79.286 111.906 87.087 115.866 86.763 115.68 85.808 114.528 84.439 116.889 84.619 119.232 83.25 119.306 82.115 121.389 85.195 121.463 85.862 121.835 86.33 122.43 86.654 128.938 83.304 135.409 87.843 142.233 86.33 146.417 84.673 150.433 87.231 154.672 86.6 156.16 86.096 157.666 85.195 159.098 86.708 176.632 87.033 195.319 85.682 211.943 86.763 256.364 84.745 303.836 87.591 350.674 84.925 361.719 83.898 373.192 82.439 383.958 81.268 383.958 81.268 392.679 78.061 392.679 63.649S394.538 51.039 394.817 39.563C395.096 28.088 396.398 27.62 394.538 18.612Z" opacity="1" fill="url(#12202f66-39a8-47b0-bd40-2b2e46c5b3da)" data-fill-palette-color="tertiary"></path><g transform="matrix(1,0,0,1,55.76832,26.23066666666667)"><svg width="283.98335999999995" viewBox="2.34 -37.55 405.46000000000004 49" height="34.31600960443133" data-palette-color="#ffffff"><path d="M37.33-10.3L37.33-10.3Q37.33-8.42 36.85-6.92 36.38-5.42 35.6-4.27 34.81-3.13 33.76-2.32 32.71-1.51 31.59-1 30.47-0.49 29.31-0.24 28.15 0 27.12 0L27.12 0 2.64 0 2.64-6.35 27.12-6.35Q28.96-6.35 29.97-7.42 30.98-8.5 30.98-10.3L30.98-10.3Q30.98-11.18 30.71-11.91 30.44-12.65 29.94-13.18 29.44-13.72 28.72-14.01 28-14.31 27.12-14.31L27.12-14.31 12.52-14.31Q10.99-14.31 9.2-14.86 7.42-15.41 5.9-16.63 4.37-17.85 3.36-19.82 2.34-21.8 2.34-24.66L2.34-24.66Q2.34-27.51 3.36-29.48 4.37-31.45 5.9-32.68 7.42-33.91 9.2-34.46 10.99-35.01 12.52-35.01L12.52-35.01 34.13-35.01 34.13-28.66 12.52-28.66Q10.72-28.66 9.7-27.56 8.69-26.46 8.69-24.66L8.69-24.66Q8.69-22.83 9.7-21.77 10.72-20.7 12.52-20.7L12.52-20.7 27.12-20.7 27.17-20.7Q28.2-20.68 29.35-20.42 30.49-20.17 31.63-19.63 32.76-19.09 33.79-18.27 34.81-17.46 35.61-16.31 36.4-15.16 36.87-13.67 37.33-12.18 37.33-10.3ZM64.77-26.39L64.77-20.04 53.68-20.04 53.68 0 47.26 0 47.26-20.04 39.01-20.04 39.01-26.39 47.26-26.39 47.26-35.01 53.68-35.01 53.68-26.39 64.77-26.39ZM97.24-17.65L97.24-17.65Q97.24-16.33 96.77-14.81 96.31-13.28 95.27-11.98 94.23-10.67 92.56-9.79 90.89-8.91 88.5-8.91L88.5-8.91 77.05-8.91 77.05-14.94 88.5-14.94Q89.79-14.94 90.5-15.73 91.21-16.53 91.21-17.7L91.21-17.7Q91.21-18.95 90.41-19.65 89.62-20.36 88.5-20.36L88.5-20.36 77.05-20.36Q75.75-20.36 75.04-19.57 74.34-18.77 74.34-17.6L74.34-17.6 74.34-8.74Q74.34-7.47 75.13-6.76 75.92-6.05 77.09-6.05L77.09-6.05 88.5-6.05 88.5 0 77.05 0Q75.73 0 74.2-0.46 72.68-0.93 71.37-1.97 70.06-3 69.18-4.68 68.31-6.35 68.31-8.74L68.31-8.74 68.31-17.65Q68.31-18.97 68.77-20.5 69.23-22.02 70.27-23.33 71.31-24.63 72.98-25.51 74.65-26.39 77.05-26.39L77.05-26.39 88.5-26.39Q89.81-26.39 91.34-25.93 92.87-25.46 94.17-24.43 95.48-23.39 96.36-21.72 97.24-20.04 97.24-17.65ZM113.1-6.35L113.1 0 110.27 0Q108.9 0 107.35-0.46 105.8-0.93 104.46-1.99 103.12-3.05 102.24-4.75 101.36-6.45 101.36-8.91L101.36-8.91 101.36-37.55 107.71-37.55 107.71-8.91Q107.71-7.74 108.44-7.04 109.17-6.35 110.27-6.35L110.27-6.35 113.1-6.35ZM128.77-6.35L128.77 0 125.94 0Q124.57 0 123.02-0.46 121.47-0.93 120.13-1.99 118.79-3.05 117.91-4.75 117.03-6.45 117.03-8.91L117.03-8.91 117.03-37.55 123.38-37.55 123.38-8.91Q123.38-7.74 124.11-7.04 124.84-6.35 125.94-6.35L125.94-6.35 128.77-6.35ZM160.09-17.65L160.09-8.74Q160.09-7.42 159.63-5.9 159.17-4.37 158.13-3.06 157.09-1.76 155.42-0.88 153.75 0 151.35 0L151.35 0 139.9 0Q138.59 0 137.06-0.46 135.53-0.93 134.23-1.97 132.92-3 132.04-4.68 131.16-6.35 131.16-8.74L131.16-8.74Q131.16-10.06 131.63-11.6 132.09-13.13 133.13-14.44 134.17-15.75 135.84-16.63 137.51-17.5 139.9-17.5L139.9-17.5 151.35-17.5 151.35-11.45 139.9-11.45Q138.61-11.45 137.9-10.66 137.19-9.86 137.19-8.69L137.19-8.69Q137.19-7.45 138.01-6.75 138.83-6.05 139.95-6.05L139.95-6.05 151.35-6.05Q152.65-6.05 153.36-6.84 154.06-7.62 154.06-8.79L154.06-8.79 154.06-17.65Q154.06-18.9 153.3-19.63 152.53-20.36 151.35-20.36L151.35-20.36 137.41-20.36 137.41-26.39 151.35-26.39Q152.67-26.39 154.2-25.93 155.72-25.46 157.03-24.43 158.34-23.39 159.22-21.72 160.09-20.04 160.09-17.65L160.09-17.65ZM188.61-26.39L188.61-20.04 174.33-20.04Q173.03-20.04 172.37-19.4 171.71-18.75 171.71-17.5L171.71-17.5 171.71 0 165.37 0 165.37-17.5Q165.37-19.14 165.78-20.43 166.2-21.73 166.89-22.72 167.59-23.71 168.49-24.4 169.39-25.1 170.38-25.54 171.37-25.98 172.38-26.18 173.4-26.39 174.28-26.39L174.28-26.39 188.61-26.39ZM228.42-8.91L228.42-7.69Q228.42-6.52 228.02-5.18 227.62-3.83 226.7-2.69 225.79-1.54 224.32-0.77 222.86 0 220.73 0L220.73 0 196.64 0Q195.95 0 195.37-0.24 194.78-0.49 194.36-0.92 193.93-1.34 193.68-1.93 193.44-2.51 193.44-3.2L193.44-3.2 193.44-31.81Q193.44-32.47 193.68-33.06 193.93-33.64 194.36-34.08 194.78-34.52 195.37-34.77 195.95-35.01 196.64-35.01L196.64-35.01 217.88-35.01Q219.05-35.01 220.39-34.59 221.74-34.18 222.9-33.26 224.05-32.35 224.82-30.88 225.59-29.42 225.59-27.29L225.59-27.29 225.59-26.1Q225.59-24.41 225.03-22.47 224.47-20.53 223.22-18.8L223.22-18.8Q224.3-18.14 225.24-17.21 226.18-16.28 226.89-15.06 227.59-13.84 228.01-12.3 228.42-10.77 228.42-8.91L228.42-8.91ZM222.08-7.74L222.08-8.91Q222.08-10.16 221.69-11.15 221.3-12.13 220.59-12.84 219.88-13.55 218.88-13.93 217.88-14.31 216.63-14.31L216.63-14.31 202.33-14.31 202.33-20.7 213.78-20.7Q215.02-20.7 216.02-21.08 217.02-21.46 217.73-22.17 218.44-22.88 218.82-23.86 219.2-24.85 219.2-26.1L219.2-26.1 219.2-27.29Q219.2-28.66 217.88-28.66L217.88-28.66 199.79-28.66 199.79-6.35 220.73-6.35Q220.91-6.35 221.15-6.37 221.39-6.4 221.59-6.52 221.78-6.64 221.93-6.93 222.08-7.23 222.08-7.74L222.08-7.74ZM244.83-6.35L244.83 0 242 0Q240.63 0 239.08-0.46 237.53-0.93 236.19-1.99 234.84-3.05 233.96-4.75 233.09-6.45 233.09-8.91L233.09-8.91 233.09-37.55 239.43-37.55 239.43-8.91Q239.43-7.74 240.17-7.04 240.9-6.35 242-6.35L242-6.35 244.83-6.35ZM277.61-17.5L277.61-8.91Q277.61-7.28 277.2-5.97 276.78-4.66 276.1-3.67 275.42-2.69 274.51-1.99 273.61-1.29 272.62-0.85 271.63-0.42 270.62-0.21 269.61 0 268.7 0L268.7 0 257.25 0Q255.93 0 254.37-0.46 252.81-0.93 251.48-1.99 250.15-3.05 249.26-4.75 248.37-6.45 248.37-8.91L248.37-8.91 248.37-17.5Q248.37-19.95 249.26-21.64 250.15-23.34 251.48-24.4 252.81-25.46 254.37-25.93 255.93-26.39 257.25-26.39L257.25-26.39 268.7-26.39Q271.14-26.39 272.85-25.51 274.56-24.63 275.61-23.3 276.66-21.97 277.14-20.41 277.61-18.85 277.61-17.5L277.61-17.5ZM271.27-8.91L271.27-17.46Q271.27-18.77 270.61-19.41 269.95-20.04 268.7-20.04L268.7-20.04 257.3-20.04Q256.03-20.04 255.37-19.4 254.71-18.75 254.71-17.5L254.71-17.5 254.71-8.91Q254.71-7.67 255.37-7.01 256.03-6.35 257.3-6.35L257.3-6.35 268.7-6.35Q270-6.35 270.63-7.01 271.27-7.67 271.27-8.91L271.27-8.91ZM311.72-17.5L311.72 2.54Q311.72 4.17 311.3 5.48 310.89 6.79 310.2 7.78 309.52 8.76 308.62 9.46 307.71 10.16 306.73 10.6 305.74 11.04 304.72 11.24 303.71 11.45 302.81 11.45L302.81 11.45 291.36 11.45 291.36 5.1 302.81 5.1Q304.1 5.1 304.74 4.44 305.37 3.78 305.37 2.54L305.37 2.54 305.37-17.5Q305.37-18.75 304.74-19.4 304.1-20.04 302.81-20.04L302.81-20.04 291.36-20.04Q290.18-20.04 289.5-19.32 288.82-18.6 288.82-17.5L288.82-17.5 288.82-8.91Q288.82-7.67 289.48-7.01 290.14-6.35 291.41-6.35L291.41-6.35 302.81-6.35 302.81 0 291.36 0Q290.45 0 289.45-0.21 288.45-0.42 287.46-0.85 286.47-1.29 285.57-1.99 284.67-2.69 283.98-3.67 283.3-4.66 282.89-5.97 282.47-7.28 282.47-8.91L282.47-8.91 282.47-17.5Q282.47-18.41 282.68-19.41 282.89-20.41 283.32-21.4 283.76-22.39 284.46-23.29 285.16-24.19 286.14-24.88 287.13-25.56 288.43-25.98 289.72-26.39 291.36-26.39L291.36-26.39 302.81-26.39Q303.71-26.39 304.72-26.18 305.74-25.98 306.73-25.54 307.71-25.1 308.62-24.4 309.52-23.71 310.2-22.72 310.89-21.73 311.3-20.43 311.72-19.14 311.72-17.5L311.72-17.5ZM346.24-17.5L346.24 2.54Q346.24 4.17 345.82 5.48 345.41 6.79 344.72 7.78 344.04 8.76 343.14 9.46 342.23 10.16 341.24 10.6 340.26 11.04 339.24 11.24 338.23 11.45 337.33 11.45L337.33 11.45 325.88 11.45 325.88 5.1 337.33 5.1Q338.62 5.1 339.25 4.44 339.89 3.78 339.89 2.54L339.89 2.54 339.89-17.5Q339.89-18.75 339.25-19.4 338.62-20.04 337.33-20.04L337.33-20.04 325.88-20.04Q324.7-20.04 324.02-19.32 323.34-18.6 323.34-17.5L323.34-17.5 323.34-8.91Q323.34-7.67 324-7.01 324.66-6.35 325.92-6.35L325.92-6.35 337.33-6.35 337.33 0 325.88 0Q324.97 0 323.97-0.21 322.97-0.42 321.98-0.85 320.99-1.29 320.09-1.99 319.19-2.69 318.5-3.67 317.82-4.66 317.4-5.97 316.99-7.28 316.99-8.91L316.99-8.91 316.99-17.5Q316.99-18.41 317.2-19.41 317.4-20.41 317.84-21.4 318.28-22.39 318.98-23.29 319.67-24.19 320.66-24.88 321.65-25.56 322.95-25.98 324.24-26.39 325.88-26.39L325.88-26.39 337.33-26.39Q338.23-26.39 339.24-26.18 340.26-25.98 341.24-25.54 342.23-25.1 343.14-24.4 344.04-23.71 344.72-22.72 345.41-21.73 345.82-20.43 346.24-19.14 346.24-17.5L346.24-17.5ZM380.44-17.65L380.44-17.65Q380.44-16.33 379.97-14.81 379.51-13.28 378.47-11.98 377.44-10.67 375.76-9.79 374.09-8.91 371.7-8.91L371.7-8.91 360.25-8.91 360.25-14.94 371.7-14.94Q372.99-14.94 373.7-15.73 374.41-16.53 374.41-17.7L374.41-17.7Q374.41-18.95 373.62-19.65 372.82-20.36 371.7-20.36L371.7-20.36 360.25-20.36Q358.95-20.36 358.25-19.57 357.54-18.77 357.54-17.6L357.54-17.6 357.54-8.74Q357.54-7.47 358.33-6.76 359.13-6.05 360.3-6.05L360.3-6.05 371.7-6.05 371.7 0 360.25 0Q358.93 0 357.4-0.46 355.88-0.93 354.57-1.97 353.27-3 352.39-4.68 351.51-6.35 351.51-8.74L351.51-8.74 351.51-17.65Q351.51-18.97 351.97-20.5 352.44-22.02 353.47-23.33 354.51-24.63 356.18-25.51 357.86-26.39 360.25-26.39L360.25-26.39 371.7-26.39Q373.02-26.39 374.54-25.93 376.07-25.46 377.37-24.43 378.68-23.39 379.56-21.72 380.44-20.04 380.44-17.65ZM407.8-26.39L407.8-20.04 393.52-20.04Q392.23-20.04 391.57-19.4 390.91-18.75 390.91-17.5L390.91-17.5 390.91 0 384.56 0 384.56-17.5Q384.56-19.14 384.98-20.43 385.39-21.73 386.09-22.72 386.78-23.71 387.69-24.4 388.59-25.1 389.58-25.54 390.57-25.98 391.58-26.18 392.59-26.39 393.47-26.39L393.47-26.39 407.8-26.39Z" opacity="1" transform="matrix(1,0,0,1,0,0)" fill="#ffffff" class="wordmark-text-0" data-fill-palette-color="quaternary" id="text-0"></path></svg></g></svg></g></svg></g></svg></g></svg></g><defs></defs><mask id="bb242e68-d78c-4180-90fc-7b6f94e2e2b3"><g id="SvgjsG1499"><svg viewBox="0 0 395.52 86.77734293776467" height="86.77734293776467" width="395.52"><g><svg viewBox="0 0 395.52 86.77734293776467" height="86.77734293776467" width="395.52"><g><svg viewBox="0 0 395.52 86.77734293776467" height="86.77734293776467" width="395.52"><g id="SvgjsG1498"><svg viewBox="0 0 395.52 86.77734293776467" height="86.77734293776467" width="395.52" id="SvgjsSvg1497"><g><svg viewBox="0 0 395.52 86.77734293776467" height="86.77734293776467" width="395.52"><path d="M394.594 18.612C392.735 9.605 387.435 7.101 387.435 7.101 371.165-2.177 350.86-0.177 332.619 1.156 300.414 1.21 268.339 3.191 236.208 4.254 168.767 4.416 100.749 1.75 33.643 8.326 27.339 10.343-6.54 8.722 1.121 19.765 3.129 24.359 10.456 29.457 10.232 33.673 11.236 34.411 12.631 32.718 13.226 33.781 15.309 36.645 18.711 35.294 21.501 36.987 17.614 41.509 20.403 45.274 23.062 49.219 18.377 50.246 12.371 49.76 9.675 53.165 9.396 55.633 7.89 55.164 6.235 55.056 5.026 54.984 2.59 55.254 2.999 56.029 4.394 58.677-1.594 60.209 2.162 62.803-0.422 65.613 3.948 68.045 3.353 71.09 3.278 71.702 3.687 72.224 4.338 72.369 7.22 73.143 3.018 74.656 3.464 76.296 33.029 87.501 65.104 79.755 95.394 84.907 103.259 81.304 97.346 86.186 100.489 85.429 102.943 84.547 104.728 88.204 107.499 86.132 107.927 85.537 107.276 84.132 108.8 84.403 109.6 84.547 110.307 84.511 110.418 83.682 110.586 82.439 109.117 83.214 108.726 82.565 112.947 79.286 111.906 87.087 115.866 86.763 115.68 85.808 114.528 84.439 116.889 84.619 119.232 83.25 119.306 82.115 121.389 85.195 121.463 85.862 121.835 86.33 122.43 86.654 128.938 83.304 135.409 87.843 142.233 86.33 146.417 84.673 150.433 87.231 154.672 86.6 156.16 86.096 157.666 85.195 159.098 86.708 176.632 87.033 195.319 85.682 211.943 86.763 256.364 84.745 303.836 87.591 350.674 84.925 361.719 83.898 373.192 82.439 383.958 81.268 383.958 81.268 392.679 78.061 392.679 63.649S394.538 51.039 394.817 39.563C395.096 28.088 396.398 27.62 394.538 18.612Z" opacity="1" fill="white"></path><g transform="matrix(1,0,0,1,55.76832,26.23066666666667)"><svg width="283.98335999999995" viewBox="2.34 -37.55 405.46000000000004 49" height="34.31600960443133" data-palette-color="#ffffff"><path d="M37.33-10.3L37.33-10.3Q37.33-8.42 36.85-6.92 36.38-5.42 35.6-4.27 34.81-3.13 33.76-2.32 32.71-1.51 31.59-1 30.47-0.49 29.31-0.24 28.15 0 27.12 0L27.12 0 2.64 0 2.64-6.35 27.12-6.35Q28.96-6.35 29.97-7.42 30.98-8.5 30.98-10.3L30.98-10.3Q30.98-11.18 30.71-11.91 30.44-12.65 29.94-13.18 29.44-13.72 28.72-14.01 28-14.31 27.12-14.31L27.12-14.31 12.52-14.31Q10.99-14.31 9.2-14.86 7.42-15.41 5.9-16.63 4.37-17.85 3.36-19.82 2.34-21.8 2.34-24.66L2.34-24.66Q2.34-27.51 3.36-29.48 4.37-31.45 5.9-32.68 7.42-33.91 9.2-34.46 10.99-35.01 12.52-35.01L12.52-35.01 34.13-35.01 34.13-28.66 12.52-28.66Q10.72-28.66 9.7-27.56 8.69-26.46 8.69-24.66L8.69-24.66Q8.69-22.83 9.7-21.77 10.72-20.7 12.52-20.7L12.52-20.7 27.12-20.7 27.17-20.7Q28.2-20.68 29.35-20.42 30.49-20.17 31.63-19.63 32.76-19.09 33.79-18.27 34.81-17.46 35.61-16.31 36.4-15.16 36.87-13.67 37.33-12.18 37.33-10.3ZM64.77-26.39L64.77-20.04 53.68-20.04 53.68 0 47.26 0 47.26-20.04 39.01-20.04 39.01-26.39 47.26-26.39 47.26-35.01 53.68-35.01 53.68-26.39 64.77-26.39ZM97.24-17.65L97.24-17.65Q97.24-16.33 96.77-14.81 96.31-13.28 95.27-11.98 94.23-10.67 92.56-9.79 90.89-8.91 88.5-8.91L88.5-8.91 77.05-8.91 77.05-14.94 88.5-14.94Q89.79-14.94 90.5-15.73 91.21-16.53 91.21-17.7L91.21-17.7Q91.21-18.95 90.41-19.65 89.62-20.36 88.5-20.36L88.5-20.36 77.05-20.36Q75.75-20.36 75.04-19.57 74.34-18.77 74.34-17.6L74.34-17.6 74.34-8.74Q74.34-7.47 75.13-6.76 75.92-6.05 77.09-6.05L77.09-6.05 88.5-6.05 88.5 0 77.05 0Q75.73 0 74.2-0.46 72.68-0.93 71.37-1.97 70.06-3 69.18-4.68 68.31-6.35 68.31-8.74L68.31-8.74 68.31-17.65Q68.31-18.97 68.77-20.5 69.23-22.02 70.27-23.33 71.31-24.63 72.98-25.51 74.65-26.39 77.05-26.39L77.05-26.39 88.5-26.39Q89.81-26.39 91.34-25.93 92.87-25.46 94.17-24.43 95.48-23.39 96.36-21.72 97.24-20.04 97.24-17.65ZM113.1-6.35L113.1 0 110.27 0Q108.9 0 107.35-0.46 105.8-0.93 104.46-1.99 103.12-3.05 102.24-4.75 101.36-6.45 101.36-8.91L101.36-8.91 101.36-37.55 107.71-37.55 107.71-8.91Q107.71-7.74 108.44-7.04 109.17-6.35 110.27-6.35L110.27-6.35 113.1-6.35ZM128.77-6.35L128.77 0 125.94 0Q124.57 0 123.02-0.46 121.47-0.93 120.13-1.99 118.79-3.05 117.91-4.75 117.03-6.45 117.03-8.91L117.03-8.91 117.03-37.55 123.38-37.55 123.38-8.91Q123.38-7.74 124.11-7.04 124.84-6.35 125.94-6.35L125.94-6.35 128.77-6.35ZM160.09-17.65L160.09-8.74Q160.09-7.42 159.63-5.9 159.17-4.37 158.13-3.06 157.09-1.76 155.42-0.88 153.75 0 151.35 0L151.35 0 139.9 0Q138.59 0 137.06-0.46 135.53-0.93 134.23-1.97 132.92-3 132.04-4.68 131.16-6.35 131.16-8.74L131.16-8.74Q131.16-10.06 131.63-11.6 132.09-13.13 133.13-14.44 134.17-15.75 135.84-16.63 137.51-17.5 139.9-17.5L139.9-17.5 151.35-17.5 151.35-11.45 139.9-11.45Q138.61-11.45 137.9-10.66 137.19-9.86 137.19-8.69L137.19-8.69Q137.19-7.45 138.01-6.75 138.83-6.05 139.95-6.05L139.95-6.05 151.35-6.05Q152.65-6.05 153.36-6.84 154.06-7.62 154.06-8.79L154.06-8.79 154.06-17.65Q154.06-18.9 153.3-19.63 152.53-20.36 151.35-20.36L151.35-20.36 137.41-20.36 137.41-26.39 151.35-26.39Q152.67-26.39 154.2-25.93 155.72-25.46 157.03-24.43 158.34-23.39 159.22-21.72 160.09-20.04 160.09-17.65L160.09-17.65ZM188.61-26.39L188.61-20.04 174.33-20.04Q173.03-20.04 172.37-19.4 171.71-18.75 171.71-17.5L171.71-17.5 171.71 0 165.37 0 165.37-17.5Q165.37-19.14 165.78-20.43 166.2-21.73 166.89-22.72 167.59-23.71 168.49-24.4 169.39-25.1 170.38-25.54 171.37-25.98 172.38-26.18 173.4-26.39 174.28-26.39L174.28-26.39 188.61-26.39ZM228.42-8.91L228.42-7.69Q228.42-6.52 228.02-5.18 227.62-3.83 226.7-2.69 225.79-1.54 224.32-0.77 222.86 0 220.73 0L220.73 0 196.64 0Q195.95 0 195.37-0.24 194.78-0.49 194.36-0.92 193.93-1.34 193.68-1.93 193.44-2.51 193.44-3.2L193.44-3.2 193.44-31.81Q193.44-32.47 193.68-33.06 193.93-33.64 194.36-34.08 194.78-34.52 195.37-34.77 195.95-35.01 196.64-35.01L196.64-35.01 217.88-35.01Q219.05-35.01 220.39-34.59 221.74-34.18 222.9-33.26 224.05-32.35 224.82-30.88 225.59-29.42 225.59-27.29L225.59-27.29 225.59-26.1Q225.59-24.41 225.03-22.47 224.47-20.53 223.22-18.8L223.22-18.8Q224.3-18.14 225.24-17.21 226.18-16.28 226.89-15.06 227.59-13.84 228.01-12.3 228.42-10.77 228.42-8.91L228.42-8.91ZM222.08-7.74L222.08-8.91Q222.08-10.16 221.69-11.15 221.3-12.13 220.59-12.84 219.88-13.55 218.88-13.93 217.88-14.31 216.63-14.31L216.63-14.31 202.33-14.31 202.33-20.7 213.78-20.7Q215.02-20.7 216.02-21.08 217.02-21.46 217.73-22.17 218.44-22.88 218.82-23.86 219.2-24.85 219.2-26.1L219.2-26.1 219.2-27.29Q219.2-28.66 217.88-28.66L217.88-28.66 199.79-28.66 199.79-6.35 220.73-6.35Q220.91-6.35 221.15-6.37 221.39-6.4 221.59-6.52 221.78-6.64 221.93-6.93 222.08-7.23 222.08-7.74L222.08-7.74ZM244.83-6.35L244.83 0 242 0Q240.63 0 239.08-0.46 237.53-0.93 236.19-1.99 234.84-3.05 233.96-4.75 233.09-6.45 233.09-8.91L233.09-8.91 233.09-37.55 239.43-37.55 239.43-8.91Q239.43-7.74 240.17-7.04 240.9-6.35 242-6.35L242-6.35 244.83-6.35ZM277.61-17.5L277.61-8.91Q277.61-7.28 277.2-5.97 276.78-4.66 276.1-3.67 275.42-2.69 274.51-1.99 273.61-1.29 272.62-0.85 271.63-0.42 270.62-0.21 269.61 0 268.7 0L268.7 0 257.25 0Q255.93 0 254.37-0.46 252.81-0.93 251.48-1.99 250.15-3.05 249.26-4.75 248.37-6.45 248.37-8.91L248.37-8.91 248.37-17.5Q248.37-19.95 249.26-21.64 250.15-23.34 251.48-24.4 252.81-25.46 254.37-25.93 255.93-26.39 257.25-26.39L257.25-26.39 268.7-26.39Q271.14-26.39 272.85-25.51 274.56-24.63 275.61-23.3 276.66-21.97 277.14-20.41 277.61-18.85 277.61-17.5L277.61-17.5ZM271.27-8.91L271.27-17.46Q271.27-18.77 270.61-19.41 269.95-20.04 268.7-20.04L268.7-20.04 257.3-20.04Q256.03-20.04 255.37-19.4 254.71-18.75 254.71-17.5L254.71-17.5 254.71-8.91Q254.71-7.67 255.37-7.01 256.03-6.35 257.3-6.35L257.3-6.35 268.7-6.35Q270-6.35 270.63-7.01 271.27-7.67 271.27-8.91L271.27-8.91ZM311.72-17.5L311.72 2.54Q311.72 4.17 311.3 5.48 310.89 6.79 310.2 7.78 309.52 8.76 308.62 9.46 307.71 10.16 306.73 10.6 305.74 11.04 304.72 11.24 303.71 11.45 302.81 11.45L302.81 11.45 291.36 11.45 291.36 5.1 302.81 5.1Q304.1 5.1 304.74 4.44 305.37 3.78 305.37 2.54L305.37 2.54 305.37-17.5Q305.37-18.75 304.74-19.4 304.1-20.04 302.81-20.04L302.81-20.04 291.36-20.04Q290.18-20.04 289.5-19.32 288.82-18.6 288.82-17.5L288.82-17.5 288.82-8.91Q288.82-7.67 289.48-7.01 290.14-6.35 291.41-6.35L291.41-6.35 302.81-6.35 302.81 0 291.36 0Q290.45 0 289.45-0.21 288.45-0.42 287.46-0.85 286.47-1.29 285.57-1.99 284.67-2.69 283.98-3.67 283.3-4.66 282.89-5.97 282.47-7.28 282.47-8.91L282.47-8.91 282.47-17.5Q282.47-18.41 282.68-19.41 282.89-20.41 283.32-21.4 283.76-22.39 284.46-23.29 285.16-24.19 286.14-24.88 287.13-25.56 288.43-25.98 289.72-26.39 291.36-26.39L291.36-26.39 302.81-26.39Q303.71-26.39 304.72-26.18 305.74-25.98 306.73-25.54 307.71-25.1 308.62-24.4 309.52-23.71 310.2-22.72 310.89-21.73 311.3-20.43 311.72-19.14 311.72-17.5L311.72-17.5ZM346.24-17.5L346.24 2.54Q346.24 4.17 345.82 5.48 345.41 6.79 344.72 7.78 344.04 8.76 343.14 9.46 342.23 10.16 341.24 10.6 340.26 11.04 339.24 11.24 338.23 11.45 337.33 11.45L337.33 11.45 325.88 11.45 325.88 5.1 337.33 5.1Q338.62 5.1 339.25 4.44 339.89 3.78 339.89 2.54L339.89 2.54 339.89-17.5Q339.89-18.75 339.25-19.4 338.62-20.04 337.33-20.04L337.33-20.04 325.88-20.04Q324.7-20.04 324.02-19.32 323.34-18.6 323.34-17.5L323.34-17.5 323.34-8.91Q323.34-7.67 324-7.01 324.66-6.35 325.92-6.35L325.92-6.35 337.33-6.35 337.33 0 325.88 0Q324.97 0 323.97-0.21 322.97-0.42 321.98-0.85 320.99-1.29 320.09-1.99 319.19-2.69 318.5-3.67 317.82-4.66 317.4-5.97 316.99-7.28 316.99-8.91L316.99-8.91 316.99-17.5Q316.99-18.41 317.2-19.41 317.4-20.41 317.84-21.4 318.28-22.39 318.98-23.29 319.67-24.19 320.66-24.88 321.65-25.56 322.95-25.98 324.24-26.39 325.88-26.39L325.88-26.39 337.33-26.39Q338.23-26.39 339.24-26.18 340.26-25.98 341.24-25.54 342.23-25.1 343.14-24.4 344.04-23.71 344.72-22.72 345.41-21.73 345.82-20.43 346.24-19.14 346.24-17.5L346.24-17.5ZM380.44-17.65L380.44-17.65Q380.44-16.33 379.97-14.81 379.51-13.28 378.47-11.98 377.44-10.67 375.76-9.79 374.09-8.91 371.7-8.91L371.7-8.91 360.25-8.91 360.25-14.94 371.7-14.94Q372.99-14.94 373.7-15.73 374.41-16.53 374.41-17.7L374.41-17.7Q374.41-18.95 373.62-19.65 372.82-20.36 371.7-20.36L371.7-20.36 360.25-20.36Q358.95-20.36 358.25-19.57 357.54-18.77 357.54-17.6L357.54-17.6 357.54-8.74Q357.54-7.47 358.33-6.76 359.13-6.05 360.3-6.05L360.3-6.05 371.7-6.05 371.7 0 360.25 0Q358.93 0 357.4-0.46 355.88-0.93 354.57-1.97 353.27-3 352.39-4.68 351.51-6.35 351.51-8.74L351.51-8.74 351.51-17.65Q351.51-18.97 351.97-20.5 352.44-22.02 353.47-23.33 354.51-24.63 356.18-25.51 357.86-26.39 360.25-26.39L360.25-26.39 371.7-26.39Q373.02-26.39 374.54-25.93 376.07-25.46 377.37-24.43 378.68-23.39 379.56-21.72 380.44-20.04 380.44-17.65ZM407.8-26.39L407.8-20.04 393.52-20.04Q392.23-20.04 391.57-19.4 390.91-18.75 390.91-17.5L390.91-17.5 390.91 0 384.56 0 384.56-17.5Q384.56-19.14 384.98-20.43 385.39-21.73 386.09-22.72 386.78-23.71 387.69-24.4 388.59-25.1 389.58-25.54 390.57-25.98 391.58-26.18 392.59-26.39 393.47-26.39L393.47-26.39 407.8-26.39Z" opacity="1" transform="matrix(1,0,0,1,0,0)" fill="black" class="wordmark-text-0" id="SvgjsPath1496"></path></svg></g></svg></g></svg></g></svg></g></svg></g><defs><mask></mask></defs></svg><rect width="395.52" height="86.77734293776467" fill="black" stroke="none" visibility="hidden"></rect></g></mask><linearGradient x1="0" x2="1" y1="0.5" y2="0.5" id="12202f66-39a8-47b0-bd40-2b2e46c5b3da"><stop stop-color="#ffa62e" offset="0"></stop><stop stop-color="#f71b3d" offset="1"></stop></linearGradient></svg><rect width="395.52" height="86.77734293776467" fill="none" stroke="none" visibility="hidden"></rect></g></svg></g></svg>